<svg id="Group_2787" data-name="Group 2787" xmlns="http://www.w3.org/2000/svg" xmlns:xlink="http://www.w3.org/1999/xlink" viewBox="0 0 56 56"><defs><linearGradient id="linear-gradient" x1="-799.79" y1="671.79" x2="-798.88" y2="670.89" gradientTransform="matrix(51.18, 0, 0, -43.19, 40937.9, 29026.3)" gradientUnits="userSpaceOnUse"><stop offset="0" stop-color="#eceb95"/><stop offset="1" stop-color="#98e35b"/></linearGradient></defs><path id="Path_6729" data-name="Path 6729" d="M53.4,34.64c-2.34,18.91-25,18.88-41.77,5.58S4.52,4.24,13,6.57,24.13,16.69,30.16,22.71,55.74,15.72,53.4,34.64Z" style="fill:url(#linear-gradient)"/><path d="M43.48,12.44H43A3.57,3.57,0,0,1,43.48,12.44Z"/><path d="M24.25,31.09H12.5c-.69,0-1.43-.1-1.41-1s.75-.92,1.44-.92H25c-1.26-1.2-2.15-2-3-2.85-.46-.46-.67-1-.08-1.54s1-.13,1.37.25c1.4,1.39,2.78,2.8,4.18,4.2a1.06,1.06,0,0,1,0,1.71l-4.17,4.21c-.46.47-1,.74-1.53.2s-.2-1.1.28-1.55l2.4-2.28Z" style="fill:#030303"/><path d="M35.62,7.19a4.29,4.29,0,0,1,3.05,1.35,1,1,0,0,1,.15,1.4.87.87,0,0,1-1.25.05c-1.8-1.51-3.42-1.2-5,.37a.84.84,0,0,1-1.36,0A1.05,1.05,0,0,1,31.37,9,5.14,5.14,0,0,1,35.62,7.19Z" style="fill:#050505"/><path d="M20.5,7.19a4.37,4.37,0,0,1,3.36,1.32c.38.39.73.8.25,1.36a.83.83,0,0,1-1.22.15c-1.79-1.49-3.43-1.25-5,.3a.88.88,0,0,1-1.38,0c-.48-.54-.12-1,.23-1.39A4.76,4.76,0,0,1,20.5,7.19Z" style="fill:#040404"/><path d="M9.13,30c0,.66-.33,1-.81,1a.83.83,0,0,1-.9-1,.79.79,0,0,1,.89-.81A.84.84,0,0,1,9.13,30Z" style="fill:#111"/><path d="M27.34,12.44c-2.68.05-5.37,0-8.06,0a3.15,3.15,0,0,1-.41,0Z"/><path d="M44.86,13.72h0c0,.15,0,.32,0,.5q-.06,14.21,0,28.4c0,1.47-.62,1.78-1.91,1.77-5,0-10.09,0-15.14,0-4.85,0-9.7-.08-14.55,0-1.86,0-2.39-.59-2.27-2.39.14-2.25,0-4.5,0-6.76,0-.61,0-1.27.81-1.33.94-.08,1,.65,1,1.33,0,2,.06,4,0,6,0,1.05.34,1.35,1.36,1.34q13.75,0,27.53,0c1,0,1.22-.33,1.21-1.25q0-10.33,0-20.66c0-.92-.34-1.08-1.14-1.08q-13.87,0-27.73,0c-.92,0-1.29.22-1.23,1.2.08,1.32,0,2.65,0,4,0,.73,0,1.61-1,1.58S11,25.5,11,24.83c0-3.64,0-7.28,0-10.92,0-.85.25-1.49,1-1.47h3a.4.4,0,0,1,.4.37s0,0,0,0V13c0,.26.06.5.07.68a5.16,5.16,0,0,0,4,3.92c.64.15,1.57.43,1.83-.56s-.63-1.08-1.32-1.28a4.14,4.14,0,0,1-1.43-.6c-.75-.56-1.52-1.34-1.19-2.3h0a.4.4,0,0,1,.27-.37l.13,0h1.1a3.15,3.15,0,0,0,.41,0c2.69-.06,5.38,0,8.06,0H29.9a.4.4,0,0,1,.4.41v.78a2.43,2.43,0,0,1,.12.43,4.74,4.74,0,0,0,4.07,3.55c.64.12,1.44.22,1.66-.61S35.6,16,35,15.77a6.49,6.49,0,0,1-1.46-.52,2.77,2.77,0,0,1-1.45-1.88h0A1,1,0,0,1,32,13v-.14h0a.42.42,0,0,1,.26-.37l.14,0H43.84a1,1,0,0,1,1,1v.16S44.87,13.69,44.86,13.72Z"/><path d="M28.79,12.44h-.66A4.71,4.71,0,0,1,28.79,12.44Z"/></svg>