<svg xmlns="http://www.w3.org/2000/svg" width="38.983" height="36.794" viewBox="0 0 38.983 36.794">
    <defs>
        <style>
            .cls-2{fill:#b7bdc8}
        </style>
    </defs>
    <g id="nav_grid-default" opacity="0.7">
        <path id="Path_6974" d="M28.989 20.328v10.828a2.166 2.166 0 0 1-2.166 2.166H5.166A2.166 2.166 0 0 1 3 31.156v-19.49A2.166 2.166 0 0 1 5.166 9.5h10.828v8.663a2.166 2.166 0 0 0 2.166 2.166z" class="cls-2" data-name="Path 6974" transform="translate(-3 3.472)"/>
        <path id="Path_6975" fill="#828790" d="M21.994 11.676v8.663H11.166A2.166 2.166 0 0 1 9 18.173V9.51h10.829a2.166 2.166 0 0 1 2.165 2.166z" data-name="Path 6975" transform="translate(3.994 3.484)"/>
        <path id="Path_6976" d="M34.989 5.676v19.49a2.166 2.166 0 0 1-2.166 2.166H21.994v-8.663a2.166 2.166 0 0 0-2.165-2.169H9V5.676a2.166 2.166 0 0 1 2.166-2.166h21.657a2.166 2.166 0 0 1 2.166 2.166z" class="cls-2" data-name="Path 6976" transform="translate(3.994 -3.51)"/>
    </g>
</svg>
